<?xml version="1.0" encoding="UTF-8"?>
<svg xmlns="http://www.w3.org/2000/svg" xmlns:xlink="http://www.w3.org/1999/xlink" version="1.1" width="152.4mm" height="101.6mm" viewBox="0 0 152.4 101.6" style="stroke:black;fill:black" stroke-width="0.5">
<g stroke="#F2F2F2" fill="#F5F5F5">
  <path d="M 20.18 5 L 147.4 5 147.4 83.54 20.18 83.54 z" />
  <g stroke="#FFFFFF" stroke-width="0.3">
    <path d="M53.78,5 L 53.78 83.54" />
    <path d="M83.79,5 L 83.79 83.54" />
    <path d="M23.78,5 L 23.78 83.54" />
    <path d="M113.79,5 L 113.79 83.54" />
    <path d="M143.8,5 L 143.8 83.54" />
  </g>
  <g stroke="#FFFFFF" stroke-width="0.3">
    <path d="M20.18,56.62 L 147.4 56.62" />
    <path d="M20.18,19.57 L 147.4 19.57" />
    <path d="M20.18,68.97 L 147.4 68.97" />
    <path d="M20.18,44.27 L 147.4 44.27" />
    <path d="M20.18,31.92 L 147.4 31.92" />
    <path d="M20.18,81.32 L 147.4 81.32" />
    <path d="M20.18,7.22 L 147.4 7.22" />
  </g>
</g>
<g stroke="#4682B4" stroke-width="0.4" fill="none">
  <path d="M23.78,56.62 L 23.89 56.18 24 55.72 24.11 56.52 24.22 58 24.33 57.26 24.44 57.48 24.55 56.57 24.66 56.76 24.76 56.78 24.87 56.93 24.98 56.39 25.09 56.55 25.2 57.01 25.31 56.41 25.42 56.06 25.53 54.36 25.64 53.84 25.75 53.41 25.86 53.14 25.97 52.65 26.08 53.37 26.19 54.31 26.3 54.75 26.41 53.46 26.52 52.8 26.63 52.94 26.74 53.97 26.85 51.88 26.96 50.62 27.06 50.43 27.17 49.96 27.28 50.84 27.39 50.16 27.5 50.91 27.61 50.92 27.72 51.88 27.83 51.28 27.94 52.75 28.05 52.48 28.16 52.33 28.27 53.19 28.38 54.19 28.49 53.57 28.6 54.27 28.71 54.66 28.82 55.86 28.93 57.32 29.04 57.44 29.15 57.11 29.25 57.51 29.36 57.81 29.47 56.83 29.58 57.63 29.69 58.22 29.8 59.61 29.91 59.44 30.02 58.14 30.13 57.38 30.24 58 30.35 59.22 30.46 60.03 30.57 57.49 30.68 56.49 30.79 56.28 30.9 55.38 31.01 54.27 31.12 54.11 31.23 52.78 31.34 53.79 31.45 53.66 31.55 53.42 31.66 53.13 31.77 52.93 31.88 52.53 31.99 53.05 32.1 52.36 32.21 52.58 32.32 52.45 32.43 51.59 32.54 52.55 32.65 52.39 32.76 51.56 32.87 52.12 32.98 52.73 33.09 53.06 33.2 53.23 33.31 53.96 33.42 54.99 33.53 55.36 33.64 55.3 33.75 54.67 33.85 54.6 33.96 55.66 34.07 56.25 34.18 56.07 34.29 55.74 34.4 55.29 34.51 56.1 34.62 57.78 34.73 57.15 34.84 56.17 34.95 56.33 35.06 56.66 35.17 56.98 35.28 57.14 35.39 56.47 35.5 57.77 35.61 57.8 35.72 58.39 35.83 58.55 35.94 59.27 36.05 58.17 36.15 56.83 36.26 58.01 36.37 57.55 36.48 57.49 36.59 56.26 36.7 57.28 36.81 57.81 36.92 55.83 37.03 56.3 37.14 55.48 37.25 53.31 37.36 55.14 37.47 54.14 37.58 55.01 37.69 53.79 37.8 54.59 37.91 55.83 38.02 57.48 38.13 57.12 38.24 56.85 38.35 55.89 38.45 55.97 38.56 56.02 38.67 55.38 38.78 54.13 38.89 54.28 39 55.94 39.11 55.82 39.22 55.16 39.33 54.66 39.44 54.93 39.55 53.13 39.66 53.57 39.77 53.86 39.88 54.75 39.99 54.1 40.1 53.46 40.21 53.24 40.32 52.33 40.43 53.21 40.54 51.77 40.64 50.44 40.75 51.53 40.86 51.75 40.97 51.83 41.08 52 41.19 53.5 41.3 52.49 41.41 52.96 41.52 52.45 41.63 53.96 41.74 53.34 41.85 53.6 41.96 53.02 42.07 53 42.18 54.36 42.29 54.33 42.4 53.04 42.51 52.58 42.62 51.7 42.73 50.16 42.84 49.72 42.94 50.72 43.05 48.89 43.16 49.44 43.27 50.23 43.38 50.47 43.49 50.79 43.6 50.6 43.71 50.43 43.82 50.77 43.93 50.75 44.04 49.47 44.15 48.76 44.26 48.29 44.37 48.64 44.48 48.18 44.59 48.61 44.7 49.64 44.81 47.77 44.92 48.02 45.03 47.35 45.14 46.79 45.24 46.32 45.35 46.93 45.46 47.48 45.57 47.55 45.68 47.86 45.79 47.52 45.9 47.25 46.01 48.71 46.12 48.67 46.23 49.87 46.34 49.6 46.45 50.05 46.56 49.72 46.67 49.38 46.78 50.07 46.89 50.71 47 51.72 47.11 52.09 47.22 52.42 47.33 53.27 47.44 53.28 47.54 52.89 47.65 52.31 47.76 52.61 47.87 51.85 47.98 51.59 48.09 52.13 48.2 53.14 48.31 53.13 48.42 54.1 48.53 54.34 48.64 55.23 48.75 55.12 48.86 56.23 48.97 55.22 49.08 55.55 49.19 55.84 49.3 56.42 49.41 56.57 49.52 56.17 49.63 55.42 49.73 55.54 49.84 55.38 49.95 55.81 50.06 55.85 50.17 56.28 50.28 55.54 50.39 55.21 50.5 53.7 50.61 52.41 50.72 52.43 50.83 52.76 50.94 51.68 51.05 50.3 51.16 52.43 51.27 52.32 51.38 52.2 51.49 53.3 51.6 53.27 51.71 51.75 51.82 51.69 51.93 51.38 52.03 51.56 52.14 51.51 52.25 51.47 52.36 52.12 52.47 52.69 52.58 52.73 52.69 54.08 52.8 54.31 52.91 54.76 53.02 55.79 53.13 54.71 53.24 56.22 53.35 56.14 53.46 56.38 53.57 56.39 53.68 56.94 53.79 57.11 53.9 57.19 54.01 56.58 54.12 57.01 54.23 56.98 54.33 56.23 54.44 56.65 54.55 57.4 54.66 56.88 54.77 57.79 54.88 57.61 54.99 57.42 55.1 58.08 55.21 58.46 55.32 59.19 55.43 59 55.54 59.21 55.65 60.04 55.76 59.59 55.87 58.01 55.98 58.67 56.09 58.69 56.2 58.89 56.31 58.87 56.42 57.91 56.53 58.32 56.63 59.63 56.74 59.86 56.85 59.21 56.96 58.43 57.07 58.25 57.18 58.66 57.29 58.98 57.4 58.88 57.51 59.18 57.62 58.66 57.73 57.96 57.84 58.75 57.95 57.86 58.06 58.01 58.17 59.1 58.28 59.8 58.39 60.88 58.5 60.27 58.61 58.72 58.72 59.13 58.82 59.1 58.93 57.75 59.04 57.35 59.15 58.1 59.26 57.89 59.37 58.48 59.48 57 59.59 55.77 59.7 57.35 59.81 58.56 59.92 59.2 60.03 58.65 60.14 57.79 60.25 57.66 60.36 57.19 60.47 58.28 60.58 57.54 60.69 58.8 60.8 59.12 60.91 59.45 61.02 58.92 61.12 59.15 61.23 59.95 61.34 60.62 61.45 61.18 61.56 60.18 61.67 60.93 61.78 62.24 61.89 62.86 62 61.7 62.11 62.2 62.22 62.2 62.33 62.38 62.44 62.45 62.55 63.36 62.66 62.28 62.77 62.56 62.88 63.1 62.99 63.98 63.1 63.36 63.21 62.49 63.32 63.1 63.42 63.31 63.53 64.53 63.64 63.96 63.75 64.19 63.86 63.76 63.97 64.07 64.08 63.61 64.19 63.6 64.3 64.14 64.41 63.28 64.52 63.98 64.63 63.04 64.74 62.9 64.85 64.15 64.96 64.8 65.07 65.63 65.18 65.75 65.29 65.85 65.4 65.14 65.51 65.53 65.62 65.03 65.72 64.98 65.83 65.44 65.94 64.84 66.05 65.24 66.16 65.44 66.27 66.56 66.38 66.64 66.49 66.02 66.6 67.04 66.71 66.74 66.82 65.9 66.93 66.2 67.04 65.93 67.15 66.44 67.26 65.85 67.37 67.92 67.48 68.44 67.59 67.76 67.7 68.78 67.81 70.23 67.92 70.27 68.02 70.03 68.13 71.02 68.24 71.43 68.35 71.19 68.46 72.17 68.57 72.43 68.68 70.47 68.79 71.09 68.9 70.79 69.01 70.58 69.12 69.24 69.23 68.56 69.34 69.22 69.45 67.82 69.56 68 69.67 68.89 69.78 69.37 69.89 69.09 70 68.42 70.11 69.29 70.21 69.16 70.32 67.85 70.43 68.87 70.54 68.55 70.65 67.55 70.76 68.43 70.87 69.1 70.98 68.34 71.09 68.62 71.2 69.33 71.31 69.8 71.42 70.05 71.53 67.74 71.64 67.57 71.75 67.24 71.86 66.46 71.97 64.92 72.08 65.08 72.19 63.59 72.3 63.53 72.41 63.65 72.51 63.2 72.62 64.29 72.73 63.14 72.84 62.36 72.95 61.63 73.06 61.3 73.17 61.36 73.28 60.8 73.39 61.68 73.5 61.39 73.61 62.09 73.72 62.15 73.83 61.23 73.94 60.15 74.05 60.1 74.16 60.52 74.27 60.97 74.38 60.17 74.49 60.24 74.6 61.08 74.71 62.04 74.81 61.53 74.92 62.01 75.03 63 75.14 62.44 75.25 63.25 75.36 62.68 75.47 60.4 75.58 60.57 75.69 60.1 75.8 59.04 75.91 58.54 76.02 58.29 76.13 58.98 76.24 58.22 76.35 58.28 76.46 59.43 76.57 57.47 76.68 56.21 76.79 56.52 76.9 56.29 77.01 57.11 77.11 57.27 77.22 58.3 77.33 58.21 77.44 58.08 77.55 58.66 77.66 57.88 77.77 57.9 77.88 58.7 77.99 58.08 78.1 58.48 78.21 58.58 78.32 57.82 78.43 58.08 78.54 58.16 78.65 58.09 78.76 57.26 78.87 58.08 78.98 58.49 79.09 57.75 79.2 58.57 79.3 58.7 79.41 58.46 79.52 57.84 79.63 57.79 79.74 57.62 79.85 58.08 79.96 58.2 80.07 58.22 80.18 56.23 80.29 55.89 80.4 56.72 80.51 56.52 80.62 55.81 80.73 54.62 80.84 55.25 80.95 54.95 81.06 54.25 81.17 54.72 81.28 54.55 81.39 54.78 81.5 54.39 81.6 53.98 81.71 53.68 81.82 54.58 81.93 54.74 82.04 54.98 82.15 55.69 82.26 55.8 82.37 54.38 82.48 53.99 82.59 52.82 82.7 51.9 82.81 52.3 82.92 51.55 83.03 51.7 83.14 51.39 83.25 51.15 83.36 51.97 83.47 51.5 83.58 51.13 83.69 50.59 83.8 50.22 83.9 49.01 84.01 48.56 84.12 48.26 84.23 47.75 84.34 47.69 84.45 48 84.56 48.91 84.67 48.6 84.78 47.4 84.89 46.77 85 46.86 85.11 47.58 85.22 47.48 85.33 46.6 85.44 46.14 85.55 46.61 85.66 46.55 85.77 45.87 85.88 44.63 85.99 45.53 86.1 46.62 86.2 46 86.31 46.34 86.42 44.13 86.53 44.42 86.64 43.79 86.75 45.31 86.86 46.05 86.97 46.96 87.08 46.45 87.19 47.46 87.3 47.26 87.41 48.39 87.52 47.61 87.63 47.07 87.74 47.76 87.85 46.06 87.96 47.04 88.07 46.33 88.18 46.11 88.29 45.42 88.39 44.55 88.5 44.45 88.61 44.91 88.72 44.75 88.83 43.34 88.94 43.69 89.05 44.47 89.16 45.06 89.27 43.41 89.38 44.11 89.49 44.71 89.6 45.19 89.71 44.86 89.82 44.79 89.93 45.68 90.04 45.7 90.15 46.01 90.26 44.38 90.37 43.62 90.48 42.94 90.59 43.23 90.69 43.61 90.8 44.68 90.91 45.99 91.02 47.3 91.13 46.77 91.24 47.93 91.35 49.22 91.46 49.34 91.57 48.81 91.68 48.59 91.79 48.75 91.9 48.54 92.01 49.33 92.12 49.79 92.23 49.17 92.34 49.61 92.45 50.27 92.56 49.04 92.67 48.67 92.78 49.25 92.89 49.44 92.99 48.85 93.1 48.53 93.21 47.45 93.32 47.14 93.43 47.07 93.54 46.4 93.65 46.76 93.76 46.58 93.87 46.14 93.98 45.89 94.09 45.47 94.2 45.37 94.31 44.69 94.42 45.03 94.53 46 94.64 46.22 94.75 46.82 94.86 45.54 94.97 45.71 95.08 47.56 95.19 46.45 95.29 46.33 95.4 47.88 95.51 49.39 95.62 50.37 95.73 49.93 95.84 51.19 95.95 52.14 96.06 52.08 96.17 51.79 96.28 51.26 96.39 50.89 96.5 51.01 96.61 51.91 96.72 52.74 96.83 53 96.94 51.79 97.05 52.14 97.16 51.35 97.27 50.92 97.38 50.83 97.49 50.26 97.59 50.74 97.7 50.85 97.81 50.6 97.92 50.35 98.03 50.85 98.14 51.04 98.25 52.34 98.36 52.41 98.47 52.73 98.58 52.25 98.69 52.34 98.8 52.47 98.91 51.48 99.02 51.77 99.13 52.74 99.24 52.75 99.35 51.76 99.46 50.94 99.57 50.54 99.68 51.39 99.78 51.02 99.89 50.72 100 50.85 100.11 50.65 100.22 52.34 100.33 50.54 100.44 49.12 100.55 49.53 100.66 48.33 100.77 48.75 100.88 48.79 100.99 48.68 101.1 48.2 101.21 48.91 101.32 48.44 101.43 48.9 101.54 48.95 101.65 50.09 101.76 49.79 101.87 49.32 101.98 50.27 102.08 49.95 102.19 48.78 102.3 49.33 102.41 49.57 102.52 49.18 102.63 49.67 102.74 49.54 102.85 49.24 102.96 50.49 103.07 49.14 103.18 48.01 103.29 47.42 103.4 47.11 103.51 47.42 103.62 48.5 103.73 49.23 103.84 49.83 103.95 50.62 104.06 49.37 104.17 50.13 104.28 51.45 104.38 50.71 104.49 49.96 104.6 48.66 104.71 49.19 104.82 49.4 104.93 50.37 105.04 51.35 105.15 50.64 105.26 50.38 105.37 48.91 105.48 48.25 105.59 47.66 105.7 48.44 105.81 47.61 105.92 49.11 106.03 48.17 106.14 48.51 106.25 47.94 106.36 46.87 106.47 48.11 106.58 48.64 106.68 47.68 106.79 48.72 106.9 48.03 107.01 48.63 107.12 47.28 107.23 46.44 107.34 46.4 107.45 46.7 107.56 46.22 107.67 45.74 107.78 43.94 107.89 44.7 108 44.98 108.11 44.59 108.22 44.56 108.33 44.85 108.44 44.73 108.55 44.13 108.66 44.4 108.77 43.41 108.87 42.27 108.98 40.48 109.09 40.78 109.2 39.3 109.31 39.57 109.42 38.55 109.53 38.66 109.64 39.3 109.75 39.4 109.86 39.76 109.97 39.25 110.08 39.97 110.19 39.12 110.3 38.57 110.41 38.33 110.52 38.33 110.63 37.5 110.74 37.19 110.85 37.04 110.96 36.06 111.07 36.97 111.17 37.33 111.28 36.84 111.39 35.02 111.5 34.63 111.61 34.35 111.72 35.4 111.83 35.69 111.94 36.1 112.05 35.03 112.16 34.42 112.27 33 112.38 35.08 112.49 34.22 112.6 33.05 112.71 31.89 112.82 32.07 112.93 32.65 113.04 32.44 113.15 32.79 113.26 31.3 113.37 31.71 113.47 31.99 113.58 32.94 113.69 33.02 113.8 34.09 113.91 33.6 114.02 34.25 114.13 33.39 114.24 35.35 114.35 35.55 114.46 37.02 114.57 36.5 114.68 36.26 114.79 36.48 114.9 36.29 115.01 37.14 115.12 36.89 115.23 35.14 115.34 33.81 115.45 32.67 115.56 32.25 115.67 32.22 115.77 33.15 115.88 33.43 115.99 34.19 116.1 34.94 116.21 33.94 116.32 34.9 116.43 34.92 116.54 35.74 116.65 34.24 116.76 34.76 116.87 34.73 116.98 34.56 117.09 32.95 117.2 32.56 117.31 31.32 117.42 30.51 117.53 31.33 117.64 31.05 117.75 30.74 117.86 30.28 117.97 31.37 118.07 31.6 118.18 31.74 118.29 32.15 118.4 32.79 118.51 33.3 118.62 31.46 118.73 30.5 118.84 29.35 118.95 29.21 119.06 29.82 119.17 29.42 119.28 30.51 119.39 29.37 119.5 28.53 119.61 27.45 119.72 26.57 119.83 27.08 119.94 27.12 120.05 25.74 120.16 26.53 120.26 25.15 120.37 25.35 120.48 26.05 120.59 26.1 120.7 25.7 120.81 24.52 120.92 25.32 121.03 24.91 121.14 24.69 121.25 24.57 121.36 23.63 121.47 24.15 121.58 24.91 121.69 24.81 121.8 25.45 121.91 24.19 122.02 22.44 122.13 20.84 122.24 21.59 122.35 19.62 122.46 19.08 122.56 19.71 122.67 18.69 122.78 18.5 122.89 17.87 123 18.6 123.11 20.34 123.22 20.17 123.33 20.82 123.44 19.9 123.55 20.5 123.66 22.13 123.77 22.78 123.88 23.92 123.99 23.17 124.1 23.83 124.21 24.13 124.32 23.65 124.43 24.16 124.54 25.32 124.65 25.47 124.76 25.36 124.86 25.95 124.97 25.57 125.08 27.59 125.19 26.94 125.3 27.4 125.41 28.67 125.52 27.57 125.63 27.15 125.74 28.69 125.85 27.84 125.96 25.2 126.07 24.56 126.18 22.61 126.29 24.24 126.4 24.28 126.51 24.39 126.62 23.93 126.73 25.34 126.84 24.75 126.95 24.13 127.06 23.04 127.16 23.93 127.27 23.54 127.38 23.89 127.49 23.26 127.6 23.39 127.71 22.51 127.82 20.92 127.93 22.02 128.04 22.32 128.15 21.32 128.26 20.62 128.37 19.67 128.48 19.59 128.59 18.3 128.7 19.05 128.81 18.58 128.92 18.42 129.03 16.87 129.14 17.76 129.25 16.11 129.35 16.55 129.46 17.26 129.57 16.3 129.68 17.01 129.79 15.71 129.9 15.08 130.01 14.34 130.12 15.57 130.23 14.2 130.34 15.74 130.45 17.44 130.56 15.08 130.67 15.34 130.78 13.14 130.89 12.66 131 13.71 131.11 14.53 131.22 12.61 131.33 11.05 131.44 12.68 131.55 13.14 131.65 12.88 131.76 14.04 131.87 13.53 131.98 11.94 132.09 14.21 132.2 13.78 132.31 14.22 132.42 13.77 132.53 13.89 132.64 14.41 132.75 15.48 132.86 12.97 132.97 11.44 133.08 14.03 133.19 13.13" />
</g>
<g stroke="none" font-family="Source Sans Pro" fill="#4C404B" font-size="3.18">
  <text x="53.78" y="87.72" text-anchor="middle">100</text>
  <text x="83.79" y="87.72" text-anchor="middle">200</text>
  <text x="23.78" y="87.72" text-anchor="middle">0</text>
  <text x="113.79" y="87.72" text-anchor="middle">300</text>
  <text x="143.8" y="87.72" text-anchor="middle">400</text>
</g>
<g stroke="none" font-family="Source Sans Pro" fill="#362A35" font-size="3.88">
  <text x="83.79" y="94.6" text-anchor="middle">Days</text>
</g>
<g stroke="none" font-family="Source Sans Pro" fill="#362A35" font-size="3.88">
  <text x="8.94" y="44.27" text-anchor="middle" style="dominant-baseline:central" transform="rotate(-90, 8.94, 44.27)">Price</text>
</g>
<g stroke="none" font-family="Source Sans Pro" fill="#4C404B" font-size="3.18">
  <text x="19.18" y="56.62" text-anchor="end" style="dominant-baseline:central">100</text>
  <text x="19.18" y="19.57" text-anchor="end" style="dominant-baseline:central">130</text>
  <text x="19.18" y="68.97" text-anchor="end" style="dominant-baseline:central">90</text>
  <text x="19.18" y="44.27" text-anchor="end" style="dominant-baseline:central">110</text>
  <text x="19.18" y="31.92" text-anchor="end" style="dominant-baseline:central">120</text>
  <text x="19.18" y="81.32" text-anchor="end" style="dominant-baseline:central">80</text>
  <text x="19.18" y="7.22" text-anchor="end" style="dominant-baseline:central">140</text>
</g>
</svg>
